#!OML:ASF Y:\EmotionMaleHayes\Project 1\Capture day 1\Session 1\Male1.ASF
:FULLY-SPECIFIED
:DEGREES
2744
root -0.379143 16.4058 15.858 1006.71 -84.7432 792.546
lowerback 3.36918 -0.63615 -19.2967
upperback 2.55574 -1.5211 -3.03619
thorax 1.27271 -1.11403 7.53579
lowerneck -25.3385 0.133964 2.57989
upperneck 24.9903 -1.78302 2.44683
head 12.5247 -0.253429 0.175099
rclavicle 4.17448e-015 -1.59028e-014
rhumerus 35.6496 13.4699 -35.3378
rradius 40.0012
rwrist -0.195047
rhand -5.66975 -30.2448
rfingers 7.12502
rthumb 20.1498 -59.2198
lclavicle 4.17448e-015 -1.59028e-014
lhumerus 38.94 -15.4482 36.2429
lradius 39.8978
lwrist 2.38788
lhand -17.6991 -26.8344
lfingers 7.12502
lthumb 8.56073 2.97208
rfemur -23.1021 -10.9447 9.89535
rtibia 30.3121
rfoot -13.2344 -8.64523
rtoes 12.718
lfemur 32.4619 -2.73791 -17.8108
ltibia 6.02249
lfoot -19.3654 21.3341
ltoes -20.272
2745
root -0.520464 16.4281 15.8139 1002.97 -84.4956 795.937
lowerback 3.60422 -0.53213 -19.7779
upperback 2.73856 -1.43975 -3.0227
thorax 1.33605 -1.10346 7.81081
lowerneck -25.4142 0.284653 2.89662
upperneck 24.9869 -1.71199 2.47651
head 12.5379 -0.186462 0.146638
rclavicle -3.97569e-015 1.90833e-014
rhumerus 35.5551 13.2829 -35.9446
rradius 39.9568
rwrist -0.460713
rhand -6.22475 -30.0854
rfingers 7.12502
rthumb 19.6163 -59.1157
lclavicle -3.97569e-015 1.90833e-014
lhumerus 39.1884 -15.7581 35.6058
lradius 39.8512
lwrist 3.50167
lhand -17.7819 -26.4824
lfingers 7.12502
lthumb 8.48077 3.32726
rfemur -22.2922 -9.86504 9.7022
rtibia 30.4617
rfoot -13.2816 -9.00427
rtoes 12.0863
lfemur 32.7219 -2.70225 -18.0469
ltibia 6.93489
lfoot -18.0541 21.4967
ltoes -19.3395
2746
root -0.667531 16.4578 15.7603 1002.87 -84.7859 795.681
lowerback 3.81836 -0.486036 -19.6343
upperback 2.90546 -1.40187 -2.87584
thorax 1.38722 -1.09845 7.89485
lowerneck -25.3006 0.303043 2.96243
upperneck 24.9381 -1.82165 2.8292
head 12.5033 -0.183356 0.250439
rclavicle -4.77083e-015 -4.77083e-014
rhumerus 34.754 13.6566 -35.8331
rradius 41.6589
rwrist -1.86343
rhand -6.05101 -31.4641
rfingers 7.12502
rthumb 19.7833 -60.4773
lclavicle -4.77083e-015 -4.77083e-014
lhumerus 39.2737 -16.0431 35.2241
lradius 39.8614
lwrist 4.08456
lhand -17.8041 -26.4251
lfingers 7.12502
lthumb 8.45944 3.38545
rfemur -21.2401 -8.65617 10.2454
rtibia 30.5076
rfoot -14.0425 -9.19918
rtoes 16.0808
lfemur 32.9991 -2.78904 -17.3178
ltibia 7.80559
lfoot -17.0191 21.1319
ltoes -15.6321
2747
root -0.818576 16.5061 15.7274 1006.13 -83.7055 792.406
lowerback 3.87806 -0.650102 -20.4789
upperback 2.94652 -1.66889 -3.08195
thorax 1.50229 -1.26239 8.12611
lowerneck -25.2436 0.268307 3.00048
upperneck 25.097 -1.95675 3.00775
head 12.5597 -0.214901 0.288337
rclavicle 3.97569e-015 -7.63333e-014
rhumerus 34.3055 13.773 -36.1563
rradius 42.2425
rwrist -2.6347
rhand -5.95267 -31.8636
rfingers 7.12502
rthumb 19.8779 -60.867
lclavicle 3.97569e-015 -7.63333e-014
lhumerus 39.3382 -16.2095 35.284
lradius 39.7386
lwrist 4.01124
lhand -17.742 -26.4256
lfingers 7.12502
lthumb 8.51931 3.38254
rfemur -20.2408 -9.19814 9.1358
rtibia 29.9566
rfoot -13.8345 -9.37216
rtoes 14.7112
lfemur 32.7024 -3.04263 -18.2602
ltibia 8.73978
lfoot -15.7991 20.7867
ltoes -11.7049
2748
root -0.970605 16.5525 15.6718 1007.69 -83.8901 790.776
lowerback 3.88382 -0.71962 -20.369
upperback 2.98069 -1.7462 -2.94106
thorax 1.56102 -1.30485 8.22103
lowerneck -25.2009 0.383511 3.28076
upperneck 25.2976 -1.89886 2.93018
head 12.6296 -0.17153 0.222692
rclavicle 7.7526e-015 4.6118e-014
rhumerus 34.3949 13.9444 -36.5972
rradius 42.0678
rwrist -2.97436
rhand -5.64502 -32.1132
rfingers 7.12502
rthumb 20.1736 -61.0857
lclavicle 7.7526e-015 4.6118e-014
lhumerus 39.2447 -16.186 35.6239
lradius 39.5232
lwrist 3.44154
lhand -17.4449 -26.3131
lfingers 7.12502
lthumb 8.80607 3.48315
rfemur -19.1188 -8.12714 9.59917
rtibia 29.2021
rfoot -14.3206 -10.046
rtoes 16.0339
lfemur 32.6885 -3.63607 -17.8958
ltibia 8.89238
lfoot -13.5362 21.726
ltoes -12.5115
2749
root -1.12103 16.5959 15.6325 1010.33 -84.2162 788.105
lowerback 3.82518 -0.798906 -19.8362
upperback 3.01861 -1.80351 -2.79086
thorax 1.63551 -1.32954 8.09598
lowerneck -25.3303 0.507211 3.65985
upperneck 25.7209 -1.81727 2.62076
head 12.8191 -0.133681 0.0563507
rclavicle -1.86858e-014 -5.40694e-014
rhumerus 34.5336 14.1081 -36.9921
rradius 41.7463
rwrist -3.15695
rhand -5.35701 -32.295
rfingers 7.12502
rthumb 20.4504 -61.2381
lclavicle -1.86858e-014 -5.40694e-014
lhumerus 39.1137 -16.1432 36.0622
lradius 39.328
lwrist 2.64468
lhand -16.9958 -26.0611
lfingers 7.12502
lthumb 9.23944 3.71646
rfemur -18.1856 -7.31449 10.2199
rtibia 28.7821
rfoot -14.9321 -10.5109
rtoes 16.6121
lfemur 32.6559 -4.03446 -17.2693
ltibia 9.71824
lfoot -13.0952 21.1898
ltoes -6.90396
2750
root -1.27123 16.6376 15.6099 1013.16 -83.9082 785.34
lowerback 3.64756 -0.937809 -19.6798
upperback 3.08357 -1.92774 -2.78589
thorax 1.83708 -1.40896 8.00933
lowerneck -25.323 0.560919 3.65666
upperneck 25.913 -1.7291 2.54602
head 12.8946 -0.103188 0.0442409
rclavicle 2.76311e-014 7.63333e-014
rhumerus 34.564 14.0706 -37.3931
rradius 41.4822
rwrist -3.00154
rhand -5.2017 -31.9162
rfingers 7.12502
rthumb 20.5996 -60.8432
lclavicle 2.76311e-014 7.63333e-014
lhumerus 38.9438 -15.9967 36.6396
lradius 39.3555
lwrist 1.87602
lhand -16.423 -25.7952
lfingers 7.12502
lthumb 9.7921 3.95715
rfemur -17.443 -7.1126 10.0369
rtibia 28.5473
rfoot -15.3638 -10.7684
rtoes 16.5532
lfemur 32.5163 -4.46009 -17.4179
ltibia 10.1735
lfoot -11.7908 21.2328
ltoes -2.72675
